<?xml version="1.0" standalone="no"?>
<!DOCTYPE svg PUBLIC "-//W3C//DTD SVG 20010904//EN"
 "http://www.w3.org/TR/2001/REC-SVG-20010904/DTD/svg10.dtd">
<svg version="1.0" xmlns="http://www.w3.org/2000/svg"
 width="500.000000pt" height="500.000000pt" viewBox="0 0 500.000000 500.000000"
 preserveAspectRatio="xMidYMid meet">

<g transform="translate(0.000000,500.000000) scale(0.100000,-0.100000)"
fill="#000000" stroke="none">
<path d="M2310 4216 c-336 -43 -620 -186 -871 -436 -425 -424 -570 -1008 -388
-1569 127 -389 410 -718 775 -899 209 -104 415 -152 654 -152 253 0 477 53
695 162 367 184 659 545 770 953 46 169 57 251 57 430 0 149 -3 185 -27 290
-61 270 -168 484 -353 705 -170 205 -425 373 -692 458 -191 61 -427 83 -620
58z m210 -121 c15 -18 10 -45 -12 -59 -14 -8 -22 -6 -39 10 -17 18 -19 25 -10
43 13 24 43 28 61 6z m-185 -15 c-3 -5 -12 -10 -19 -10 -43 0 -162 -36 -180
-54 -16 -16 -33 -21 -71 -21 -73 0 -204 -66 -225 -113 -12 -28 -19 -33 -45
-31 -36 3 -61 -10 -138 -69 -66 -52 -87 -51 -30 1 44 41 141 119 157 128 75
40 146 74 202 95 38 14 75 30 82 36 7 6 29 12 50 14 20 2 71 10 112 18 92 18
113 19 105 6z m415 -6 c47 -9 99 -17 117 -18 18 -1 38 -7 45 -14 6 -6 16 -12
21 -12 15 0 271 -122 282 -134 6 -6 43 -35 83 -65 63 -46 106 -91 87 -91 -4 0
-32 20 -63 43 -75 57 -94 67 -135 67 -28 0 -36 5 -48 33 -19 44 -149 110 -218
112 -33 1 -53 7 -68 22 -20 20 -134 53 -182 53 -11 0 -23 5 -26 10 -8 14 6 13
105 -6z m10 -122 c156 -42 253 -86 397 -181 163 -107 321 -278 415 -451 73
-133 128 -338 144 -532 l6 -77 116 -3 c96 -2 117 -6 117 -18 0 -12 -17 -16
-82 -18 -46 -2 -83 -7 -83 -12 0 -5 -17 -10 -37 -12 -38 -3 -38 -3 -45 -58 -9
-69 -28 -160 -33 -160 -16 0 -208 205 -230 245 -89 160 -131 197 -284 255
l-96 36 0 222 c0 205 -4 254 -18 202 -3 -11 -12 -20 -21 -20 -9 0 -16 8 -16
20 0 11 -6 20 -14 20 -7 0 -16 -9 -19 -20 -3 -11 -12 -20 -21 -20 -9 0 -16 8
-16 20 0 11 -7 20 -15 20 -17 0 -21 -45 -5 -55 6 -3 10 -18 10 -32 0 -20 -4
-24 -20 -20 -16 4 -20 0 -20 -19 0 -27 -3 -28 -31 -14 -12 7 -19 21 -19 38 0
27 -15 52 -32 52 -4 0 -8 -11 -8 -25 0 -14 -4 -25 -8 -25 -17 0 -40 35 -44 64
-3 30 -28 50 -28 22 0 -8 -5 -18 -10 -21 -17 -11 -40 15 -40 44 0 26 -16 51
-32 51 -4 0 -8 -9 -8 -20 0 -23 -22 -26 -40 -5 -9 11 -10 39 -5 105 6 77 5 90
-8 90 -9 0 -17 -10 -19 -22 -2 -15 -11 -24 -25 -26 -19 -3 -23 1 -23 22 0 14
-4 28 -10 31 -5 3 -10 28 -10 56 l0 49 34 0 c18 0 48 3 65 6 28 6 30 8 14 20
-14 10 -15 15 -6 25 17 17 -30 49 -74 49 l-31 0 -6 -87 c-12 -163 -15 -175
-39 -171 -14 2 -23 11 -25 26 -2 13 -9 21 -15 19 -8 -3 -11 -31 -9 -95 4 -82
2 -91 -16 -101 -28 -15 -29 -14 -35 11 -5 18 -8 19 -21 8 -9 -7 -16 -25 -16
-41 0 -18 -7 -32 -19 -39 -28 -15 -31 -13 -31 17 0 26 0 26 -20 8 -12 -10 -19
-24 -16 -31 5 -14 -21 -54 -35 -54 -5 0 -9 9 -9 20 0 22 -1 23 -24 14 -9 -4
-16 -18 -16 -34 0 -27 -31 -66 -43 -53 -4 3 -7 15 -7 25 0 15 -5 18 -20 13
-17 -5 -20 -2 -20 24 0 16 4 32 9 35 10 7 3 46 -9 46 -4 0 -10 -9 -13 -20 -3
-11 -12 -20 -21 -20 -9 0 -16 8 -16 20 0 11 -7 20 -15 20 -8 0 -15 -9 -15 -20
0 -12 -7 -20 -16 -20 -9 0 -18 9 -21 20 -3 11 -10 20 -17 20 -8 0 -10 -62 -8
-223 l4 -223 -59 -18 c-86 -27 -188 -83 -226 -125 -18 -21 -53 -72 -77 -115
-31 -58 -70 -106 -142 -177 -55 -55 -101 -99 -103 -99 -7 0 -35 142 -35 179
l0 41 -40 0 c-22 0 -40 4 -40 10 0 5 -37 10 -82 12 -66 2 -83 6 -83 18 0 12
22 16 120 20 l120 5 6 110 c11 181 46 310 132 479 143 281 415 519 703 615
145 48 239 61 414 57 123 -3 184 -9 240 -24z m-1207 -294 c15 -23 -8 -48 -44
-48 -21 0 -39 -13 -80 -60 -91 -105 -72 -53 25 69 52 64 78 74 99 39z m1974
-40 c97 -121 115 -171 25 -68 -40 45 -59 59 -84 62 -33 3 -46 23 -34 54 11 29
43 13 93 -48z m-2172 -229 c7 -21 -7 -39 -31 -39 -5 0 -20 -14 -33 -31 -33
-45 -37 -28 -8 35 28 60 59 75 72 35z m2330 -11 c9 -18 21 -46 26 -63 l9 -30
-26 33 c-14 17 -31 32 -39 32 -19 0 -36 25 -29 44 10 27 41 18 59 -16z m-1030
-127 c152 -56 317 -167 380 -255 49 -70 95 -161 95 -191 0 -11 -16 7 -37 45
-46 79 -160 196 -228 235 -27 16 -69 46 -93 68 -24 21 -76 54 -117 74 -125 59
-233 61 -343 5 -83 -43 -291 -184 -331 -226 -19 -20 -38 -36 -43 -36 -15 0 35
71 73 104 87 74 318 204 389 219 57 12 148 -3 255 -42z m-655 5 c0 -14 -5 -28
-11 -32 -17 -10 -32 12 -24 35 9 29 35 27 35 -3z m1008 -3 c-4 -39 -28 -42
-28 -4 0 21 5 31 16 31 11 0 14 -8 12 -27z m-1733 -48 c0 -23 -5 -31 -21 -33
-30 -4 -48 21 -34 48 18 33 55 23 55 -15z m2484 16 c13 -24 -8 -55 -35 -49
-23 4 -30 33 -14 53 17 20 37 19 49 -4z m-2594 -293 c-10 -85 -29 -104 -22
-21 5 59 12 83 24 83 3 0 2 -28 -2 -62z m2669 16 c9 -66 8 -100 -3 -88 -12 12
-23 134 -12 134 4 0 11 -21 15 -46z m-1122 -101 c3 -64 4 -67 32 -74 16 -5 39
-18 52 -30 l23 -21 3 43 c2 32 8 45 21 47 13 3 17 -3 17 -27 0 -17 5 -31 10
-31 6 0 10 -27 10 -60 0 -33 -4 -60 -10 -60 -5 0 -10 -13 -10 -30 0 -23 -5
-30 -19 -30 -15 0 -21 8 -24 33 -2 17 -3 8 0 -22 2 -30 8 -74 14 -98 l11 -43
53 0 c49 0 84 -17 68 -33 -8 -9 -898 -9 -906 0 -4 3 -2 12 4 20 8 9 38 13 101
13 64 0 93 4 104 14 19 19 18 56 -1 56 -9 0 -15 9 -15 24 0 14 -5 28 -10 31
-7 4 -8 11 -2 18 5 7 10 51 10 100 1 114 0 107 17 107 8 0 15 9 15 20 0 11 6
20 14 20 8 0 12 -8 9 -22 -3 -17 4 -28 29 -44 82 -52 140 -54 278 -10 l75 24
3 66 c4 86 20 85 24 -1z m-738 -565 c8 -13 50 -106 94 -208 44 -102 108 -248
141 -325 34 -76 61 -145 61 -152 0 -11 -20 -13 -87 -11 l-87 3 -26 65 -26 65
-156 3 -155 2 -23 -57 c-13 -32 -28 -64 -33 -70 -6 -9 -38 -13 -94 -13 -83 0
-85 1 -80 23 5 23 285 662 300 685 5 8 34 12 82 12 66 0 76 -2 89 -22z m443
-103 c37 -68 72 -123 77 -122 4 2 38 57 75 122 l67 120 83 3 c46 2 88 -1 93
-6 4 -4 -39 -89 -98 -188 -150 -254 -141 -230 -143 -369 -2 -110 -5 -127 -38
-213 -20 -51 -39 -89 -43 -85 -5 4 -24 52 -44 105 -34 91 -36 104 -36 215 l0
118 -120 200 c-66 110 -120 206 -120 213 0 9 24 12 89 12 l90 0 68 -125z m732
115 c83 -14 147 -47 200 -105 69 -75 86 -122 86 -245 0 -88 -4 -113 -23 -154
-36 -80 -85 -131 -160 -168 -66 -33 -69 -33 -229 -37 l-163 -3 0 361 0 361
113 0 c61 0 141 -5 176 -10z"/>
<path d="M2481 3874 c0 -11 3 -14 6 -6 3 7 2 16 -1 19 -3 4 -6 -2 -5 -13z"/>
<path d="M2677 3827 c-20 -6 -36 -15 -34 -21 3 -6 0 -19 -5 -28 -7 -15 -4 -18
19 -18 15 1 39 7 53 15 14 8 37 14 53 15 32 0 34 10 9 33 -21 19 -39 20 -95 4z"/>
<path d="M2402 2615 c-21 -9 -38 -27 -48 -50 -8 -19 -23 -41 -34 -47 -20 -13
-25 -34 -14 -62 5 -14 30 -16 175 -16 l169 0 10 26 c19 49 12 113 -15 139 -22
23 -31 25 -117 25 -58 -1 -105 -6 -126 -15z"/>
<path d="M2746 2525 c-6 -17 16 -31 33 -21 13 9 2 36 -14 36 -7 0 -16 -7 -19
-15z"/>
<path d="M1868 2059 c-8 -19 -29 -71 -48 -116 -18 -46 -31 -85 -28 -88 3 -3
48 -4 101 -3 l95 3 -45 110 c-25 61 -49 114 -53 119 -5 5 -15 -6 -22 -25z"/>
<path d="M3020 1935 l0 -215 50 0 c53 0 111 19 144 48 10 9 29 40 42 67 40 84
28 186 -28 251 -43 49 -78 64 -148 64 l-60 0 0 -215z"/>
</g>
</svg>
